<svg width="60" height="46" viewBox="0 0 60 46" fill="none" xmlns="http://www.w3.org/2000/svg">
<path d="M50.7925 3.89992C46.9683 2.14522 42.8674 0.852427 38.5797 0.111993C38.5016 0.0977026 38.4236 0.133414 38.3834 0.20484C37.856 1.14288 37.2718 2.36662 36.8627 3.32848C32.251 2.63806 27.6629 2.63806 23.1457 3.32848C22.7366 2.34524 22.1312 1.14288 21.6014 0.20484C21.5612 0.135798 21.4831 0.100086 21.4051 0.111993C17.1197 0.85006 13.0188 2.14285 9.19228 3.89992C9.15915 3.9142 9.13076 3.93803 9.11191 3.96896C1.33342 15.5899 -0.797437 26.9251 0.247889 38.1199C0.252619 38.1746 0.283364 38.227 0.325934 38.2603C5.45796 42.0292 10.4292 44.3172 15.3081 45.8338C15.3862 45.8576 15.469 45.829 15.5186 45.7647C16.6728 44.1887 17.7015 42.5268 18.5836 40.7792C18.6357 40.6769 18.586 40.5554 18.4796 40.515C16.8478 39.896 15.2939 39.1412 13.7993 38.2841C13.681 38.2151 13.6716 38.046 13.7803 37.965C14.0949 37.7294 14.4095 37.4841 14.7098 37.2365C14.7642 37.1913 14.8399 37.1818 14.9038 37.2103C24.7232 41.6935 35.3538 41.6935 45.0573 37.2103C45.1212 37.1794 45.1969 37.1889 45.2536 37.2341C45.5541 37.4818 45.8686 37.7294 46.1855 37.965C46.2943 38.046 46.2872 38.2151 46.1689 38.2841C44.6742 39.1579 43.1204 39.896 41.4862 40.5126C41.3798 40.5531 41.3325 40.6769 41.3846 40.7792C42.2856 42.5244 43.3144 44.1862 44.4472 45.7623C44.4945 45.829 44.5796 45.8576 44.6577 45.8338C49.5603 44.3172 54.5315 42.0292 59.6635 38.2603C59.7085 38.227 59.7369 38.177 59.7416 38.1222C60.9926 25.1799 57.6462 13.9376 50.8705 3.97133C50.8539 3.93803 50.8256 3.9142 50.7925 3.89992ZM20.05 31.3034C17.0937 31.3034 14.6578 28.5893 14.6578 25.2561C14.6578 21.9229 17.0464 19.2088 20.05 19.2088C23.0771 19.2088 25.4895 21.9467 25.4421 25.2561C25.4421 28.5893 23.0535 31.3034 20.05 31.3034ZM39.9868 31.3034C37.0306 31.3034 34.5947 28.5893 34.5947 25.2561C34.5947 21.9229 36.9833 19.2088 39.9868 19.2088C43.014 19.2088 45.4263 21.9467 45.379 25.2561C45.379 28.5893 43.014 31.3034 39.9868 31.3034Z" fill="white"/>
</svg>
