<svg width="60" height="60" viewBox="0 0 60 60" fill="none" xmlns="http://www.w3.org/2000/svg">
<path d="M12.4697 28.5678C12.4696 28.2328 12.5358 27.9011 12.6643 27.5918C12.7928 27.2825 12.9811 27.0016 13.2185 26.7653C13.4559 26.529 13.7376 26.3419 14.0475 26.2148C14.3574 26.0877 14.6893 26.023 15.0243 26.0246L19.2596 26.0385C19.9349 26.0385 20.5825 26.3067 21.06 26.7843C21.5375 27.2618 21.8058 27.9094 21.8058 28.5847V44.5998C22.2829 44.4585 22.8948 44.3078 23.5651 44.1505C24.0305 44.041 24.4453 43.7775 24.7422 43.4027C25.0391 43.0279 25.2007 42.5638 25.2009 42.0857V22.2203C25.2008 21.5449 25.469 20.8971 25.9465 20.4195C26.424 19.9419 27.0717 19.6735 27.7471 19.6734H31.991C32.6663 19.6736 33.314 19.942 33.7915 20.4196C34.2689 20.8972 34.5372 21.5449 34.5372 22.2203V40.658C34.5372 40.658 35.5992 40.2279 36.6345 39.791C37.0189 39.6284 37.347 39.3562 37.5777 39.0084C37.8085 38.6605 37.9317 38.2525 37.932 37.8351V15.8535C37.932 15.5192 37.9978 15.1881 38.1258 14.8792C38.2537 14.5703 38.4412 14.2896 38.6776 14.0532C38.914 13.8167 39.1947 13.6292 39.5035 13.5012C39.8124 13.3732 40.1435 13.3073 40.4779 13.3073H44.7217C45.397 13.3073 46.0447 13.5756 46.5222 14.0531C46.9998 14.5306 47.2681 15.1782 47.2682 15.8535V33.9541C50.9473 31.2878 54.6761 28.0807 57.6351 24.2244C58.0644 23.6647 58.3485 23.0074 58.462 22.3111C58.5755 21.6149 58.5149 20.9014 58.2856 20.2342C56.2834 14.3994 52.528 9.3254 47.5326 5.70599C42.5372 2.08658 36.5459 0.098459 30.3777 0.013461C13.7447 -0.209975 -0.00148998 13.3676 0.000143922 30.0025C-0.0161876 35.2664 1.35766 40.4412 3.98278 45.0038C4.34481 45.6279 4.87741 46.1357 5.51801 46.4675C6.15862 46.7994 6.88063 46.9415 7.59923 46.8773C8.40208 46.8066 9.40163 46.7068 10.5899 46.5673C11.1071 46.5084 11.5846 46.2614 11.9314 45.8732C12.2782 45.4851 12.4702 44.9829 12.4707 44.4624V28.5678" fill="white"/>
<path d="M12.3774 54.2525C16.8506 57.5067 22.1368 59.46 27.6512 59.8963C33.1656 60.3326 38.6932 59.2349 43.6225 56.7247C48.5518 54.2145 52.6906 50.3896 55.581 45.6732C58.4715 40.9568 60.0008 35.5328 59.9999 30.0011C59.9999 29.3106 59.9679 28.6278 59.9217 27.9487C48.966 44.2878 28.7374 51.9273 12.3772 54.2531" fill="#BFCFDA"/>
</svg>
