<svg width="60" height="60" viewBox="0 0 60 60" fill="none" xmlns="http://www.w3.org/2000/svg">
<path d="M42.4999 5H17.4999C10.5964 5 4.99994 10.5964 4.99994 17.5V42.5C4.99994 49.4036 10.5964 55 17.4999 55H42.4999C49.4035 55 54.9999 49.4036 54.9999 42.5V17.5C54.9999 10.5964 49.4035 5 42.4999 5Z" stroke="white" stroke-width="4" stroke-linecap="round" stroke-linejoin="round"/>
<path d="M39.9999 28.4248C40.3085 30.5054 39.9531 32.6303 38.9843 34.4973C38.0156 36.3643 36.4828 37.8783 34.604 38.824C32.7252 39.7696 30.5961 40.0988 28.5194 39.7646C26.4428 39.4304 24.5243 38.45 23.037 36.9627C21.5497 35.4754 20.5693 33.557 20.2351 31.4803C19.9009 29.4037 20.2301 27.2745 21.1758 25.3957C22.1214 23.5169 23.6354 21.9841 25.5024 21.0154C27.3694 20.0466 29.4943 19.6912 31.5749 19.9998C33.6972 20.3145 35.6621 21.3034 37.1792 22.8205C38.6963 24.3377 39.6852 26.3025 39.9999 28.4248Z" stroke="white" stroke-width="4" stroke-linecap="round" stroke-linejoin="round"/>
<path d="M43.7499 16.25H43.7749" stroke="white" stroke-width="4" stroke-linecap="round" stroke-linejoin="round"/>
</svg>
