<svg width="28" height="26" viewBox="0 0 28 26" fill="none" xmlns="http://www.w3.org/2000/svg">
<path d="M14.7632 17.1187C14.9382 16.6688 14.8257 16.1562 14.4757 15.8062L11.8632 13.2313L11.9007 13.1937C14.0184 10.8401 15.6006 8.05532 16.5382 5.03125H18.9632C19.6382 5.03125 20.2007 4.46875 20.2007 3.79375V3.76875C20.2007 3.09375 19.6382 2.53125 18.9632 2.53125H11.4507V1.28125C11.4507 0.59375 10.8882 0.03125 10.2007 0.03125C9.51318 0.03125 8.95068 0.59375 8.95068 1.28125V2.53125H1.43818C0.763184 2.53125 0.200684 3.09375 0.200684 3.76875C0.200684 4.45625 0.763184 5.00625 1.43818 5.00625H14.1632C13.3057 7.48676 11.9582 9.76951 10.2007 11.7188C9.18818 10.6063 8.33818 9.39375 7.62568 8.11875C7.53166 7.94166 7.39128 7.79345 7.21955 7.68997C7.04781 7.58649 6.85118 7.53163 6.65068 7.53125C5.78818 7.53125 5.23818 8.46875 5.66318 9.21875C6.45068 10.6313 7.41318 11.9813 8.53818 13.2313L3.07568 18.6188C2.95699 18.7341 2.86264 18.8721 2.79822 19.0245C2.73379 19.1769 2.70059 19.3408 2.70059 19.5063C2.70059 19.6717 2.73379 19.8356 2.79822 19.988C2.86264 20.1404 2.95699 20.2784 3.07568 20.3938C3.56318 20.8813 4.35068 20.8813 4.85068 20.3938L10.2007 15.0312L12.7257 17.5563C13.3632 18.1938 14.4507 17.9562 14.7632 17.1187ZM20.8257 10.0312C20.0757 10.0312 19.4007 10.4937 19.1382 11.2062L14.5507 23.4562C14.2507 24.2188 14.8257 25.0312 15.6382 25.0312C16.1257 25.0312 16.5632 24.7312 16.7382 24.2687L17.8507 21.2812H23.7882L24.9132 24.2687C25.0882 24.7188 25.5257 25.0312 26.0132 25.0312C26.8257 25.0312 27.4007 24.2188 27.1132 23.4562L22.5257 11.2062C22.2507 10.4937 21.5757 10.0312 20.8257 10.0312ZM18.8007 18.7812L20.8257 13.3687L22.8507 18.7812H18.8007Z" fill="#354153"/>
</svg>
