<svg width="60" height="60" viewBox="0 0 60 60" fill="none" xmlns="http://www.w3.org/2000/svg">
<path d="M29.9999 0C13.4339 0 -6.10352e-05 13.434 -6.10352e-05 30C-6.10352e-05 46.566 13.4339 60 29.9999 60C46.5659 60 59.9999 46.566 59.9999 30C59.9999 13.434 46.5719 0 29.9999 0ZM14.8019 31.008L14.9279 30.804L22.7339 18.594C22.8479 18.42 23.1179 18.438 23.2019 18.63C24.5039 21.552 25.6319 25.188 25.1039 27.45C24.8819 28.38 24.2639 29.64 23.5679 30.804C23.4779 30.972 23.3819 31.14 23.2739 31.302C23.2259 31.374 23.1419 31.416 23.0519 31.416H15.0299C14.8139 31.416 14.6879 31.182 14.8019 31.008ZM49.5839 35.208C49.5839 35.322 49.5179 35.418 49.4219 35.46C48.8159 35.718 46.7459 36.672 45.8879 37.866C43.6919 40.92 42.0179 45.288 38.2679 45.288H22.6319C17.0879 45.288 12.5999 40.782 12.5999 35.22V35.04C12.5999 34.896 12.7199 34.776 12.8699 34.776H21.5819C21.7559 34.776 21.8819 34.932 21.8699 35.106C21.8039 35.67 21.9119 36.252 22.1819 36.78C22.6979 37.83 23.7719 38.484 24.9299 38.484H29.2439V35.118H24.9779C24.7619 35.118 24.6299 34.866 24.7559 34.686C24.8039 34.614 24.8519 34.542 24.9119 34.458C25.3139 33.882 25.8899 32.994 26.4659 31.98C26.8559 31.296 27.2339 30.564 27.5399 29.832C27.5999 29.7 27.6479 29.562 27.7019 29.43C27.7859 29.196 27.8699 28.974 27.9299 28.758C27.9899 28.572 28.0439 28.38 28.0919 28.2C28.2359 27.576 28.2959 26.916 28.2959 26.232C28.2959 25.962 28.2839 25.68 28.2599 25.416C28.2479 25.122 28.2119 24.828 28.1759 24.534C28.1519 24.276 28.1039 24.018 28.0559 23.754C27.9899 23.364 27.9059 22.974 27.8099 22.584L27.7739 22.434C27.7019 22.164 27.6359 21.912 27.5519 21.642C27.3059 20.802 27.0299 19.98 26.7299 19.212C26.6219 18.906 26.5019 18.612 26.3759 18.324C26.1959 17.88 26.0099 17.478 25.8419 17.1C25.7519 16.926 25.6799 16.77 25.6079 16.608C25.5239 16.428 25.4399 16.248 25.3499 16.074C25.2899 15.942 25.2179 15.816 25.1699 15.696L24.6419 14.724C24.5699 14.592 24.6899 14.43 24.8339 14.472L28.1339 15.366H28.1459H28.1579L28.5899 15.492L29.0699 15.624L29.2439 15.672V13.716C29.2439 12.768 29.9999 12 30.9419 12C31.4099 12 31.8359 12.192 32.1359 12.504C32.4419 12.816 32.6339 13.242 32.6339 13.716V16.626L32.9879 16.722C33.0119 16.734 33.0419 16.746 33.0659 16.764C33.1499 16.824 33.2759 16.92 33.4319 17.04C33.5579 17.136 33.6899 17.256 33.8459 17.382C34.1639 17.64 34.5479 17.97 34.9619 18.348C35.0699 18.444 35.1779 18.54 35.2799 18.642C35.8139 19.14 36.4139 19.722 36.9899 20.37C37.1519 20.556 37.3079 20.736 37.4699 20.934C37.6259 21.132 37.7999 21.324 37.9439 21.516C38.1419 21.774 38.3459 22.044 38.5319 22.326C38.6159 22.458 38.7179 22.596 38.7959 22.728C39.0359 23.082 39.2399 23.448 39.4379 23.814C39.5219 23.982 39.6059 24.168 39.6779 24.348C39.8999 24.84 40.0739 25.338 40.1819 25.842C40.2179 25.95 40.2419 26.064 40.2539 26.172V26.196C40.2899 26.34 40.3019 26.496 40.3139 26.658C40.3619 27.168 40.3379 27.684 40.2299 28.2C40.1819 28.416 40.1219 28.62 40.0499 28.842C39.9719 29.052 39.8999 29.268 39.8039 29.478C39.6179 29.904 39.4019 30.336 39.1439 30.732C39.0599 30.882 38.9579 31.038 38.8619 31.188C38.7539 31.344 38.6399 31.494 38.5439 31.638C38.4059 31.824 38.2619 32.016 38.1119 32.19C37.9799 32.37 37.8479 32.55 37.6979 32.712C37.4939 32.958 37.2959 33.186 37.0859 33.408C36.9659 33.552 36.8339 33.702 36.6959 33.834C36.5639 33.984 36.4259 34.116 36.3059 34.236C36.0959 34.446 35.9279 34.602 35.7839 34.74L35.4419 35.046C35.3939 35.094 35.3279 35.118 35.2619 35.118H32.6339V38.484H35.9399C36.6779 38.484 37.3799 38.226 37.9499 37.74C38.1419 37.572 38.9879 36.84 39.9899 35.736C40.0259 35.694 40.0679 35.67 40.1159 35.658L49.2419 33.018C49.4159 32.97 49.5839 33.096 49.5839 33.276V35.208Z" fill="white"/>
</svg>
