<svg width="60" height="50" viewBox="0 0 60 50" fill="none" xmlns="http://www.w3.org/2000/svg">
<path d="M53.6975 12.7317C53.7338 13.2567 53.7338 13.7817 53.7338 14.3115C53.7338 30.4559 41.4435 49.0752 18.9701 49.0752V49.0655C12.3314 49.0752 5.83058 47.1736 0.241867 43.5881C1.20719 43.7042 2.17735 43.7623 3.14993 43.7647C8.65154 43.7696 13.9959 41.9236 18.3241 38.5244C13.0959 38.4252 8.51122 35.0163 6.90961 30.0397C8.74106 30.393 10.6282 30.3204 12.4257 29.8292C6.72574 28.6776 2.62493 23.6696 2.62493 17.8534C2.62493 17.8002 2.62493 17.7494 2.62493 17.6986C4.32332 18.6446 6.22493 19.1696 8.17009 19.2276C2.80154 15.6397 1.14671 8.49779 4.38864 2.91392C10.5919 10.547 19.7443 15.1873 29.5693 15.6784C28.5846 11.4349 29.9298 6.98811 33.104 4.00505C38.0249 -0.620758 45.7644 -0.383661 50.3903 4.53489C53.1265 3.99537 55.7491 2.99134 58.1491 1.56876C57.237 4.39698 55.3282 6.7994 52.7782 8.32602C55.1999 8.04053 57.5661 7.39215 59.7943 6.40263C58.154 8.86069 56.0878 11.0018 53.6975 12.7317Z" fill="white"/>
</svg>
