<svg width="27" height="22" viewBox="0 0 27 22" fill="none" xmlns="http://www.w3.org/2000/svg">
<path d="M23.8256 5.69798C23.8413 5.92136 23.8413 6.14474 23.8413 6.37018C23.8413 13.2394 18.5155 21.1618 8.77704 21.1618V21.1577C5.90027 21.1618 3.08325 20.3527 0.66148 18.8271C1.07979 18.8765 1.50019 18.9012 1.92164 18.9022C4.30567 18.9043 6.62156 18.1189 8.49712 16.6725C6.23156 16.6303 4.24487 15.1799 3.55083 13.0624C4.34446 13.2127 5.16221 13.1818 5.94116 12.9728C3.47116 12.4828 1.69414 10.3519 1.69414 7.87724C1.69414 7.85459 1.69414 7.83298 1.69414 7.81136C2.43011 8.21386 3.25414 8.43724 4.09704 8.46195C1.77067 6.93533 1.05358 3.89651 2.45842 1.52062C5.14648 4.76842 9.11253 6.74283 13.37 6.9518C12.9433 5.14621 13.5262 3.25415 14.9017 1.98489C17.0341 0.0166534 20.3879 0.117536 22.3924 2.21033C23.5782 1.98077 24.7146 1.55357 25.7546 0.948271C25.3594 2.15165 24.5322 3.17386 23.4272 3.82342C24.4766 3.70195 25.502 3.42607 26.4675 3.00504C25.7567 4.05092 24.8614 4.96195 23.8256 5.69798Z" fill="#6C6781"/>
</svg>
