<svg width="185" height="185" viewBox="0 0 185 185" fill="none" xmlns="http://www.w3.org/2000/svg">
<path d="M92.123 184.11C67.7314 184.085 44.3457 174.385 27.0971 157.138C9.84844 139.892 0.145485 116.508 0.117065 92.116C0.145479 67.7232 9.84805 44.3376 27.0964 27.0893C44.3447 9.84099 67.7303 0.138414 92.123 0.110001C116.516 0.138414 139.901 9.84099 157.15 27.0893C174.398 44.3376 184.101 67.7232 184.129 92.116C184.101 116.508 174.398 139.892 157.149 157.138C139.9 174.385 116.515 184.085 92.123 184.11ZM92.123 33.5103C76.5857 33.5292 61.6901 39.7098 50.7035 50.6964C39.7169 61.683 33.5363 76.5786 33.5174 92.116C33.5363 107.652 39.7173 122.547 50.7042 133.531C61.6912 144.516 76.5868 150.694 92.123 150.71C107.659 150.694 122.555 144.516 133.542 133.531C144.529 122.547 150.71 107.652 150.729 92.116C150.71 76.5786 144.529 61.683 133.543 50.6964C122.556 39.7098 107.66 33.5292 92.123 33.5103Z" fill="url(#paint0_linear_1208_66)"/>
<defs>
<linearGradient id="paint0_linear_1208_66" x1="120.058" y1="184.11" x2="120.536" y2="11.758" gradientUnits="userSpaceOnUse">
<stop stop-color="#02FA23"/>
<stop offset="0.455186" stop-color="#43DFB2"/>
<stop offset="0.68905" stop-color="#9E73F9"/>
</linearGradient>
</defs>
</svg>
