<svg width="1318" height="1147" viewBox="0 0 1318 1147" fill="none" xmlns="http://www.w3.org/2000/svg">
<circle cx="424.394" cy="807.609" r="133.68" fill="white"/>
<circle cx="899.338" cy="807.609" r="133.68" fill="white"/>
<path d="M738.407 955.155C738.456 949.956 737.74 944.778 736.281 939.788C731.242 924.177 721.718 910.396 708.897 900.163C696.076 889.929 680.526 883.697 664.187 882.243C645.837 883.211 628.298 890.11 614.206 901.903C600.114 913.695 590.231 929.744 586.043 947.635C573.128 1017.11 738.243 1016.13 738.407 955.155Z" fill="#1EEE60"/>
<path d="M1314.51 757.827C1270.86 506.231 1101.99 280.629 876.057 188.753C899.761 131.208 922.975 60.9117 903.848 11.0503C902.757 8.19549 900.889 5.70348 898.453 3.85716C896.086 1.97128 893.269 0.732145 890.279 0.260702C887.25 -0.264446 884.133 0.0754875 881.288 1.24154C878.393 2.26032 875.844 4.07323 873.931 6.4729C834.019 50.3543 786.569 86.7309 733.829 113.879C735.045 95.5306 732.313 77.1345 725.818 59.9308C724.951 57.7604 723.544 55.8473 721.731 54.3725C719.903 53.0098 717.771 52.112 715.519 51.7568C713.254 51.3922 710.933 51.6225 708.784 52.4249C706.634 53.2274 704.73 54.5746 703.258 56.3343C679.128 83.1713 650.805 105.918 619.393 123.688C619.302 108.433 616.479 93.3172 611.055 79.058C610.226 76.9119 608.81 75.0424 606.968 73.6632C605.192 72.184 603.043 71.2225 600.756 70.884C598.558 70.3165 596.252 70.3165 594.053 70.884C591.891 71.6855 589.975 73.0379 588.495 74.8075C552.23 119.418 507.079 155.996 455.913 182.214C215.924 273.272 39.8565 518.983 4.70833 776.137C-14.9093 918.364 28.4129 1040.81 115.548 1146.91C179.923 1086.02 250.12 1031.59 325.129 984.41C375.154 952.695 452.316 950.733 476.838 938.472C509.362 928.814 537.349 907.821 555.726 879.301C574.102 850.781 581.652 816.62 577.006 783.012C572.36 749.404 555.826 718.573 530.402 696.107C504.977 673.642 472.345 661.029 438.421 660.556C351.613 660.556 279.028 741.152 227.695 801.966C201.702 832.864 176.526 864.906 153.639 898.093C150.206 903.161 138.762 918.528 125.52 936.674V768.126C125.52 555.602 296.356 483.804 509.371 483.804H813.934C1026.46 483.804 1201.55 555.112 1201.55 768.126V925.884C1127.82 811.448 1028.75 657.123 894.857 657.123C861.078 657.843 828.661 670.579 803.424 693.044C778.188 715.509 761.785 746.233 757.158 779.702C752.532 813.17 759.985 847.192 778.18 875.661C796.376 904.13 824.122 925.182 856.439 935.039C880.961 947.464 951.257 953.676 1003.57 981.14C1081.92 1021.32 1157.56 1066.59 1229.99 1116.67C1241.43 1085.77 1254.51 1064.84 1257.78 1043.26C1291.62 962.504 1329.71 873.407 1314.51 757.827ZM395.098 831.556C398.142 841.205 404.233 849.605 412.457 855.498C420.681 861.39 430.595 864.455 440.709 864.234C450.824 864.013 460.594 860.517 468.553 854.271C476.512 848.025 482.23 839.367 484.849 829.594C508.486 821.61 533.155 817.095 558.088 816.189C554.43 845.759 539.987 872.939 517.529 892.52C495.071 912.1 466.176 922.704 436.383 922.299C406.591 921.894 377.995 910.509 356.078 890.325C334.16 870.141 320.462 842.578 317.609 812.92C331.832 818.314 358.642 818.805 395.098 831.556ZM895.838 919.018C868.707 919.009 842.368 909.88 821.05 893.099C799.733 876.318 784.675 852.858 778.296 826.488C800.087 827.03 821.679 830.776 842.38 837.605C846.129 845.065 851.808 851.384 858.825 855.908C865.843 860.431 873.944 862.992 882.286 863.326C890.629 863.659 898.908 861.753 906.265 857.805C913.621 853.857 919.786 848.011 924.12 840.875C953.559 832.178 983.698 826.052 1014.2 822.565C1008.53 849.782 993.677 874.223 972.126 891.786C950.575 909.348 923.639 918.964 895.838 919.018Z" fill="url(#paint0_linear_456_7074)"/>
<defs>
<linearGradient id="paint0_linear_456_7074" x1="859.075" y1="1146.91" x2="861.664" y2="72.6216" gradientUnits="userSpaceOnUse">
<stop stop-color="#02FA23"/>
<stop offset="0.455186" stop-color="#43DFB2"/>
<stop offset="0.68905" stop-color="#9E73F9"/>
</linearGradient>
</defs>
</svg>
