<svg width="296" height="247" viewBox="0 0 296 247" fill="none" xmlns="http://www.w3.org/2000/svg">
<path d="M198.601 127.012C196.444 131.518 194.052 135.907 191.434 140.162H191.248C188.355 135.68 186.92 133.587 184.016 129.85C180.936 130.354 178.887 130.661 176.476 130.946V130.825C166.954 131.823 157.475 132.37 147.854 132.491V135.559C154.987 135.559 158.56 135.494 165.672 135.121C159.645 140.655 153.256 145.772 146.933 150.967V151.175C143.854 144.885 140.774 138.584 137.849 132.239C132.37 131.932 129.641 131.724 124.184 131.143C121.028 138.124 118.19 145.214 115.417 152.358C111.834 152.797 108.842 153.235 104.349 153.969V126.015C100.382 125.116 98.4099 124.678 94.4869 123.549V161.004C100.908 159.361 107.297 157.936 113.773 156.709C117.455 156.128 119.351 155.865 123.077 155.438C123.778 153.432 124.173 152.457 124.907 150.517C129.477 150.21 131.778 150.101 136.369 149.937C137.082 151.679 137.465 152.534 138.21 154.243C141.761 154.079 143.755 154.002 146.977 153.991C156.905 154.079 166.702 154.627 176.564 155.646V152.106C170.362 151.493 164.094 151.131 157.858 151.01C164.239 146.011 170.3 140.616 176.005 134.858C179.428 138.591 182.647 142.505 185.648 146.583V159.185C189.9 159.909 192.026 160.281 196.245 161.224V146.868C201.018 139.715 205.259 132.222 208.935 124.448C204.738 125.565 202.689 126.069 198.601 127.012ZM126.112 147.263C127.866 142.507 128.753 140.26 130.496 135.757H130.693C132.49 140.403 133.389 142.627 135.186 147.011C131.548 147.065 129.74 147.109 126.112 147.263Z" stroke="#00FB1D" stroke-width="2.0537" stroke-miterlimit="10"/>
<circle cx="129.832" cy="94.3303" r="9.52955" fill="white"/>
<circle cx="163.688" cy="94.3303" r="9.52955" fill="white"/>
<path d="M152.216 104.848C152.219 104.477 152.168 104.108 152.064 103.752C151.705 102.64 151.026 101.657 150.112 100.928C149.198 100.198 148.09 99.7539 146.925 99.6503C145.617 99.7193 144.367 100.211 143.362 101.052C142.358 101.892 141.653 103.036 141.355 104.312C140.434 109.265 152.204 109.195 152.216 104.848Z" fill="#00FB1D"/>
<path d="M125.739 80.841C130.262 79.2755 135.171 79.2264 139.724 80.7011C140.09 80.8155 140.396 81.0706 140.574 81.4105C140.752 81.7503 140.788 82.147 140.674 82.5133C140.559 82.8795 140.304 83.1854 139.964 83.3635C139.624 83.5416 139.228 83.5774 138.861 83.4631C136.876 82.3664 134.734 81.5804 132.51 81.1323C130.308 80.7433 128.058 80.7039 125.844 81.0158C125.704 81.0158 125.646 80.8177 125.844 80.7827L125.739 80.841Z" fill="#00FB1D"/>
<path d="M168.719 80.1301C164.114 78.8833 159.229 79.1572 154.792 80.9109C154.434 81.05 154.145 81.3259 153.99 81.6777C153.835 82.0296 153.826 82.4287 153.965 82.7872C154.104 83.1457 154.38 83.4343 154.732 83.5895C155.084 83.7447 155.483 83.7537 155.841 83.6146C157.753 82.407 159.841 81.5028 162.029 80.9343C164.201 80.4017 166.442 80.2129 168.672 80.3749C168.812 80.3749 168.858 80.1651 168.672 80.1301H168.719Z" fill="#00FB1D"/>
<path d="M193.284 90.7818C190.173 72.8465 178.134 56.7642 162.029 50.2147C163.719 46.1126 165.373 41.1014 164.01 37.547C163.932 37.3435 163.799 37.1659 163.625 37.0342C163.457 36.8998 163.256 36.8115 163.043 36.7779C162.827 36.7404 162.605 36.7647 162.402 36.8478C162.195 36.9204 162.014 37.0496 161.877 37.2207C159.032 40.3488 155.65 42.942 151.89 44.8773C151.977 43.5693 151.782 42.2579 151.319 41.0315C151.257 40.8768 151.157 40.7404 151.028 40.6353C150.897 40.5381 150.745 40.4741 150.585 40.4488C150.423 40.4228 150.258 40.4392 150.105 40.4964C149.951 40.5536 149.816 40.6497 149.711 40.7751C147.991 42.6882 145.972 44.3097 143.732 45.5765C143.726 44.489 143.525 43.4115 143.138 42.395C143.079 42.242 142.978 42.1088 142.847 42.0104C142.72 41.905 142.567 41.8364 142.404 41.8123C142.247 41.7719 142.083 41.7719 141.926 41.8123C141.772 41.8695 141.635 41.9659 141.53 42.092C138.945 45.2722 135.726 47.8796 132.078 49.7486C114.971 56.2398 102.419 73.7555 99.9139 92.087C98.5154 102.226 101.604 110.955 107.815 118.518C112.404 114.177 117.408 110.297 122.755 106.934C126.321 104.673 131.822 104.533 133.57 103.659C135.889 102.971 137.884 101.474 139.194 99.4412C140.504 97.4081 141.042 94.9729 140.711 92.5771C140.38 90.1813 139.201 87.9835 137.388 86.382C135.576 84.7805 133.25 83.8814 130.832 83.8477C124.643 83.8477 119.469 89.5931 115.81 93.9283C113.957 96.1309 112.162 98.415 110.531 100.781C110.286 101.142 109.47 102.237 108.526 103.531V91.5159C108.526 76.366 120.704 68.5113 135.889 68.5113H157.6C172.75 68.5113 185.232 76.331 185.232 91.5159V102.762C179.976 94.6042 172.914 83.603 163.369 83.603C160.961 83.6543 158.65 84.5622 156.851 86.1636C155.052 87.7651 153.883 89.9553 153.553 92.3411C153.223 94.727 153.755 97.1523 155.052 99.1817C156.349 101.211 158.327 102.712 160.63 103.415C162.378 104.3 167.39 104.743 171.119 106.701C176.704 109.565 182.096 112.792 187.259 116.362C188.075 114.159 189.007 112.668 189.241 111.129C191.653 105.372 194.368 99.021 193.284 90.7818ZM127.743 96.0376C127.96 96.7254 128.394 97.3243 128.981 97.7443C129.567 98.1643 130.274 98.3829 130.995 98.3671C131.716 98.3514 132.412 98.1021 132.98 97.6569C133.547 97.2117 133.954 96.5944 134.141 95.8978C135.826 95.3286 137.585 95.0067 139.362 94.9422C139.101 97.0501 138.072 98.9877 136.471 100.383C134.87 101.779 132.81 102.535 130.686 102.506C128.562 102.477 126.524 101.666 124.962 100.227C123.399 98.7882 122.423 96.8233 122.219 94.7091C123.233 95.0937 125.144 95.1286 127.743 96.0376ZM163.439 102.272C161.505 102.272 159.627 101.621 158.108 100.425C156.588 99.2285 155.515 97.5561 155.06 95.6764C156.613 95.715 158.153 95.982 159.628 96.4688C159.895 97.0006 160.3 97.4511 160.801 97.7735C161.301 98.096 161.878 98.2786 162.473 98.3024C163.068 98.3261 163.658 98.1903 164.182 97.9088C164.707 97.6274 165.146 97.2106 165.455 96.7019C167.554 96.082 169.702 95.6453 171.876 95.3967C171.472 97.3369 170.414 99.0792 168.877 100.331C167.341 101.583 165.421 102.269 163.439 102.272Z" fill="#00FB1D"/>
<circle cx="130.767" cy="96.3027" r="3.23095" fill="black"/>
<ellipse cx="129.832" cy="92.8879" rx="8.57915" ry="3.7608" fill="#00FB1D"/>
<circle cx="162.663" cy="96.4193" r="3.23095" fill="black"/>
<ellipse cx="162.774" cy="93.0045" rx="8.61531" ry="3.7608" fill="#00FB1D"/>
<path d="M7.4716 154.864C13.6576 156.508 16.7506 157.278 22.9367 158.741C33.7697 161.291 38.4017 167.794 38.4017 179.11V183.636C38.4017 191.18 36.214 196.038 31.5367 198.121V198.332C36.7722 200.218 38.4922 205.619 38.4922 213.933V226.863C38.2822 229.812 38.6723 232.774 39.6389 235.569C35.369 236.444 33.2417 236.881 28.9718 237.847C28.4135 235.976 28.0213 234.829 28.0213 228.553V214.249C28.0213 206.992 26.2107 204.699 21.4882 204.955L17.8822 205.076V240.623C13.718 241.649 11.6962 242.132 7.48669 243.278L7.4716 154.864ZM21.6542 193.202C25.5318 193.338 27.9156 191.406 27.9156 185.13V179.095C27.9156 173.512 26.2862 170.796 22.5896 170.178L17.8671 169.348V193.051L21.6542 193.202Z" fill="#00FB1D"/>
<path d="M40.9355 164.897C52.3872 167.13 58.1357 168.111 69.6025 169.77V178.431C62.2999 177.692 58.6638 177.269 51.3763 176.349V193.926C57.1701 194.122 60.0519 194.198 65.8607 194.364V203.19L51.497 203.462V223.951C58.7845 223.061 62.4207 222.638 69.7232 221.884V230.559C58.1961 232.204 52.4476 233.17 41.0563 235.418L40.9355 164.897Z" fill="#00FB1D"/>
<path d="M68.0938 170.072C72.3637 170.676 74.5062 170.978 78.776 171.581C81.0191 186.347 83.3275 201.108 85.7014 215.864H85.8975C88.1305 201.621 90.444 187.393 92.8379 173.18C96.7457 173.588 98.692 173.769 102.585 174.086C99.0541 191.97 95.6443 209.854 92.3551 227.738C86.7123 228.311 83.9059 228.643 78.2932 229.352C74.7627 209.587 71.3629 189.827 68.0938 170.072Z" fill="#00FB1D"/>
<path d="M102.932 171.611C114.504 172.622 120.328 172.984 131.946 173.392V180.709C124.583 180.513 120.901 180.377 113.554 180.015V194.092L128.174 194.243V201.606H113.554V217.916C120.901 217.554 124.583 217.418 131.946 217.222V224.585C120.328 224.992 114.504 225.354 102.932 226.38V171.611Z" fill="#00FB1D"/>
<path d="M133.213 173.437C138.539 173.618 141.225 173.663 146.566 173.708C150.715 185.854 152.752 191.814 156.931 203.975H157.112V173.708C160.914 173.708 162.8 173.708 166.602 173.542V224.434C162.227 224.328 160.024 224.283 155.649 224.253C150.534 209.467 147.924 202.179 142.854 187.333H142.733V224.313C138.931 224.313 137.03 224.419 133.243 224.539L133.213 173.437Z" fill="#00FB1D"/>
<path d="M168.957 212.409V185.568C168.957 177.42 174.389 172.637 184.829 171.988C195.27 171.34 200.687 175.806 200.687 184.587V189.234L190.638 189.505V184.406C190.638 180.604 188.511 179.276 185.131 179.427C181.752 179.578 179.609 181.056 179.609 184.768V213.163C179.609 216.875 181.736 218.278 185.131 218.429C188.526 218.58 190.638 217.327 190.638 213.525V203.1H185.312V195.556L200.687 195.42V213.344C200.687 222.095 195.285 226.546 184.829 225.912C174.374 225.279 168.957 220.571 168.957 212.409Z" fill="#00FB1D"/>
<path d="M202.709 171.415C214.311 170.359 220.105 169.68 231.617 168.02V176.877C224.33 177.616 220.678 177.948 213.346 178.536V193.624L227.875 193.292V201.983L213.346 201.802V219.455C220.678 220.028 224.33 220.36 231.617 221.114V229.971C220.105 228.311 214.311 227.632 202.709 226.561V171.415Z" fill="#00FB1D"/>
<path d="M232.868 167.839C239.13 166.919 242.268 166.406 248.514 165.32C259.423 163.403 264.085 167.915 264.085 179.276V183.802C264.085 191.346 261.882 196.204 257.22 198.286V198.483C262.455 200.172 264.175 205.68 264.175 213.993V226.878C263.997 229.965 264.386 233.059 265.322 236.006C261.052 235.116 258.925 234.693 254.64 233.894C254.066 232.008 253.674 230.801 253.674 225.218V212.514C253.674 206.087 251.864 203.959 247.066 203.854L243.43 203.763V231.887C239.22 231.178 237.108 230.846 232.868 230.227V167.839ZM247.277 194.198C251.185 194.092 253.584 192.251 253.584 186.654V181.328C253.584 176.379 252.075 174.448 248.212 174.9L243.43 175.474V194.228L247.277 194.198Z" fill="#00FB1D"/>
<path d="M264.84 218.323V214.129C268.824 214.476 270.8 214.642 274.738 215.019V220.345C274.738 225.897 276.835 228.251 280.155 228.824C283.474 229.398 285.556 227.662 285.556 221.507C285.556 214.642 283.459 209.814 276.639 202.586C267.903 193.292 265.052 187.831 265.052 179.336C265.052 167.779 270.483 159.963 280.637 157.474C290.792 154.984 295.725 161.638 295.725 175.745V179.321C291.802 179.789 289.841 180.03 285.903 180.437V176.303C285.903 170.359 284.017 168.458 280.698 169.046C277.378 169.635 275.462 172.064 275.462 177.42C275.462 183.123 277.695 186.805 284.515 194.017C293.221 203.326 295.952 210.93 295.952 221.929C295.952 236.293 290.505 242.796 280.245 240.306C269.985 237.817 264.84 230.092 264.84 218.323Z" fill="#00FB1D"/>
</svg>
