<svg width="78" height="67" viewBox="0 0 78 67" fill="none" xmlns="http://www.w3.org/2000/svg">
<circle cx="25.6951" cy="47.1395" r="7.7909" fill="white"/>
<circle cx="53.3749" cy="47.1395" r="7.7909" fill="white"/>
<path d="M43.9957 55.7382C43.9986 55.4352 43.9568 55.1335 43.8718 54.8426C43.5781 53.9328 43.023 53.1296 42.2758 52.5332C41.5287 51.9368 40.6224 51.5736 39.6701 51.4889C38.6007 51.5453 37.5785 51.9474 36.7572 52.6346C35.936 53.3219 35.36 54.2572 35.1159 55.2999C34.3633 59.3492 43.9862 59.292 43.9957 55.7382Z" fill="#00FB1D"/>
<path d="M22.3492 36.1113C26.0465 34.8314 30.0602 34.7913 33.7823 35.9969C34.0818 36.0904 34.3318 36.2991 34.4774 36.5769C34.623 36.8547 34.6523 37.1791 34.5588 37.4785C34.4653 37.7779 34.2567 38.028 33.9789 38.1736C33.701 38.3192 33.3767 38.3485 33.0773 38.255C31.4539 37.3584 29.7027 36.7158 27.8847 36.3495C26.0844 36.0314 24.2453 35.9993 22.4349 36.2542C22.3206 36.2542 22.273 36.0922 22.4349 36.0636L22.3492 36.1113Z" fill="#00FB1D"/>
<path d="M57.4873 35.5301C53.7225 34.5107 49.7291 34.7346 46.1018 36.1684C45.8087 36.2821 45.5727 36.5076 45.4459 36.7953C45.319 37.083 45.3116 37.4092 45.4253 37.7023C45.539 37.9955 45.7645 38.2314 46.0522 38.3583C46.3399 38.4851 46.6662 38.4925 46.9593 38.3788C48.5224 37.3915 50.229 36.6523 52.0185 36.1875C53.7937 35.7521 55.6262 35.5978 57.4492 35.7301C57.5635 35.7301 57.6016 35.5586 57.4492 35.5301H57.4873Z" fill="#00FB1D"/>
<path d="M77.5711 44.2384C75.0272 29.5754 65.1852 16.4272 52.018 11.0727C53.3995 7.71899 54.7524 3.62211 53.6377 0.716182C53.5741 0.549803 53.4652 0.404568 53.3233 0.296964C53.1853 0.187055 53.0211 0.114839 52.8469 0.0873628C52.6703 0.0567572 52.4887 0.0765685 52.3229 0.144526C52.1542 0.203901 52.0056 0.309557 51.8941 0.44941C49.5681 3.00682 46.8026 5.12685 43.729 6.70906C43.7998 5.6397 43.6406 4.56757 43.2621 3.56494C43.2116 3.43845 43.1296 3.32695 43.0239 3.241C42.9174 3.16158 42.7931 3.10926 42.6619 3.08856C42.5299 3.06731 42.3946 3.08073 42.2693 3.1275C42.144 3.17426 42.0331 3.25278 41.9473 3.35534C40.541 4.9194 38.8903 6.24506 37.0596 7.28071C37.0543 6.39163 36.8898 5.5107 36.5737 4.67968C36.5254 4.5546 36.4428 4.44564 36.3355 4.36526C36.232 4.27906 36.1067 4.22302 35.9735 4.2033C35.8454 4.17022 35.7109 4.17022 35.5828 4.2033C35.4568 4.25 35.3451 4.32882 35.2589 4.43196C33.1453 7.03189 30.5139 9.16361 27.532 10.6916C13.5454 15.9985 3.2842 30.3185 1.23576 45.3055C0.0924418 53.5945 2.61726 60.7307 7.69548 66.9141C11.4473 63.3652 15.5384 60.1932 19.9099 57.4436C22.8253 55.5953 27.3224 55.481 28.7515 54.7664C30.647 54.2035 32.2781 52.9801 33.3491 51.3179C34.4201 49.6557 34.8601 47.6649 34.5893 45.7062C34.3185 43.7475 33.355 41.9506 31.8732 40.6413C30.3915 39.3321 28.4897 38.597 26.5125 38.5694C21.4534 38.5694 17.2231 43.2665 14.2314 46.8108C12.7165 48.6115 11.2493 50.479 9.91542 52.4131C9.71534 52.7084 9.04841 53.604 8.27667 54.6616V44.8386C8.27667 32.4527 18.233 26.0311 30.6475 26.0311H48.3975C60.7834 26.0311 70.9875 32.4241 70.9875 44.8386V54.0328C66.6905 47.3634 60.9168 38.3694 53.1137 38.3694C51.145 38.4113 49.2558 39.1535 47.785 40.4628C46.3142 41.7721 45.3582 43.5627 45.0886 45.5132C44.819 47.4638 45.2533 49.4466 46.3137 51.1058C47.3742 52.7649 48.9912 53.9919 50.8747 54.5663C52.3038 55.2904 56.4007 55.6525 59.4495 57.2531C64.0159 59.5948 68.424 62.2332 72.6453 65.1515C73.3122 63.3508 74.0744 62.1312 74.265 60.8736C76.2372 56.167 78.4571 50.9744 77.5711 44.2384ZM23.9877 48.5353C24.1651 49.0976 24.5201 49.5872 24.9994 49.9306C25.4787 50.274 26.0564 50.4527 26.6459 50.4398C27.2354 50.4269 27.8048 50.2232 28.2686 49.8592C28.7325 49.4951 29.0657 48.9905 29.2184 48.421C30.5959 47.9557 32.0337 47.6925 33.4868 47.6397C33.2735 49.3631 32.4318 50.9471 31.123 52.0883C29.8141 53.2294 28.1301 53.8474 26.3938 53.8238C24.6575 53.8002 22.9909 53.1367 21.7136 51.9603C20.4362 50.784 19.6379 49.1777 19.4716 47.4492C20.3005 47.7636 21.8631 47.7922 23.9877 48.5353ZM53.1708 53.6326C51.5897 53.6321 50.0546 53.1 48.8122 52.122C47.5698 51.144 46.6923 49.7768 46.3205 48.24C47.5905 48.2715 48.8489 48.4898 50.0553 48.8878C50.2738 49.3226 50.6048 49.6909 51.0138 49.9545C51.4227 50.2181 51.8949 50.3674 52.3811 50.3868C52.8672 50.4063 53.3498 50.2952 53.7785 50.0651C54.2073 49.835 54.5666 49.4943 54.8191 49.0784C56.5349 48.5716 58.2913 48.2145 60.0688 48.0113C59.7386 49.5975 58.8729 51.022 57.6169 52.0455C56.3609 53.069 54.7911 53.6294 53.1708 53.6326Z" fill="#00FB1D"/>
</svg>
