<svg width="1146" height="997" viewBox="0 0 1146 997" fill="none" xmlns="http://www.w3.org/2000/svg">
<path d="M1142.7 338.388C1104.76 557.048 957.995 753.116 761.642 832.965C782.243 882.976 802.418 944.07 785.795 987.404C784.847 989.885 783.223 992.051 781.107 993.656C779.049 995.295 776.601 996.372 774.003 996.781C771.37 997.238 768.661 996.942 766.188 995.929C763.673 995.044 761.457 993.468 759.795 991.383C725.108 953.246 683.869 921.631 638.033 898.037C639.09 913.983 636.716 929.971 631.071 944.923C630.318 946.809 629.095 948.472 627.519 949.753C625.93 950.938 624.078 951.718 622.12 952.027C620.152 952.344 618.134 952.143 616.266 951.446C614.398 950.749 612.744 949.578 611.465 948.048C590.493 924.725 565.878 904.956 538.578 889.512C538.499 902.77 536.045 915.907 531.332 928.299C530.611 930.165 529.38 931.789 527.78 932.988C526.236 934.274 524.368 935.109 522.381 935.403C520.471 935.897 518.466 935.897 516.556 935.403C514.676 934.707 513.011 933.532 511.725 931.994C480.207 893.223 440.967 861.434 396.499 838.648C187.927 759.51 34.9086 545.965 4.36165 322.475C-12.6878 198.867 24.9631 92.4498 100.691 0.240662C156.639 53.1625 217.646 100.465 282.836 141.467C326.312 169.03 393.373 170.735 414.685 181.391C442.952 189.785 467.275 208.03 483.246 232.816C499.216 257.603 505.778 287.291 501.74 316.5C497.702 345.709 483.333 372.504 461.237 392.028C439.141 411.553 410.78 422.514 381.297 422.925C305.853 422.925 242.77 352.88 198.157 300.027C175.567 273.174 153.686 245.327 133.795 216.485C130.812 212.08 120.866 198.725 109.358 182.954V329.437C109.358 514.14 257.83 609.901 442.959 609.901H707.652C892.354 609.901 1044.52 514.566 1044.52 329.437V192.331C980.443 291.786 894.343 425.909 777.981 425.909C748.624 425.283 720.451 414.215 698.518 394.691C676.585 375.166 662.329 348.464 658.308 319.377C654.288 290.29 660.765 260.722 676.578 235.98C692.392 211.237 716.506 192.941 744.592 184.375C765.904 173.577 826.998 168.178 872.463 144.309C940.559 109.389 1006.29 70.0435 1069.24 26.5254C1079.19 53.3783 1090.55 71.5642 1093.4 90.3186C1122.81 160.506 1155.91 237.939 1142.7 338.388ZM343.646 274.311C346.291 265.925 351.585 258.624 358.732 253.504C365.88 248.383 374.495 245.719 383.286 245.911C392.076 246.103 400.567 249.141 407.484 254.569C414.401 259.997 419.371 267.523 421.647 276.016C442.19 282.955 463.63 286.879 485.298 287.666C482.119 261.967 469.567 238.345 450.049 221.328C430.531 204.311 405.419 195.095 379.526 195.447C353.634 195.799 328.782 205.694 309.733 223.236C290.685 240.777 278.78 264.732 276.3 290.508C288.661 285.819 311.962 285.393 343.646 274.311ZM778.833 198.299C755.255 198.307 732.363 206.24 713.836 220.825C695.31 235.409 682.223 255.798 676.679 278.715C695.617 278.244 714.383 274.989 732.373 269.054C735.632 262.571 740.567 257.078 746.666 253.147C752.765 249.216 759.806 246.99 767.056 246.7C774.306 246.41 781.502 248.067 787.895 251.498C794.289 254.929 799.647 260.01 803.413 266.212C828.999 273.77 855.192 279.094 881.698 282.125C876.775 258.471 863.865 237.229 845.135 221.966C826.405 206.702 802.995 198.346 778.833 198.299Z" fill="url(#paint0_linear_464_7438)"/>
<defs>
<linearGradient id="paint0_linear_464_7438" x1="573" y1="996.99" x2="573" y2="0.240662" gradientUnits="userSpaceOnUse">
<stop stop-color="#00FB1D"/>
<stop offset="1" stop-color="#6DE5FF"/>
</linearGradient>
</defs>
</svg>
