<svg width="148" height="123" viewBox="0 0 148 123" fill="none" xmlns="http://www.w3.org/2000/svg">
<path d="M99.1624 62.963C98.0899 65.2037 96.9004 67.3864 95.5986 69.5021H95.506C94.0674 67.2734 93.3536 66.2326 91.9095 64.3744C90.3783 64.625 89.3593 64.7776 88.1605 64.9193V64.8594C83.4251 65.3552 78.7115 65.6277 73.9271 65.6876V67.2134C77.4746 67.2134 79.251 67.1807 82.7875 66.9954C79.7905 69.7473 76.6136 72.2921 73.4694 74.875V74.9785C71.9382 71.8507 70.407 68.7174 68.952 65.5623C66.2274 65.4097 64.8706 65.3062 62.1569 65.0174C60.5875 68.4885 59.1761 72.0142 57.7975 75.567C56.0156 75.785 54.528 76.003 52.2938 76.3681V62.4672C50.3212 62.0203 49.3403 61.8024 47.3895 61.2411V79.8665C50.5828 79.0491 53.7596 78.3407 56.9801 77.7304C58.811 77.4416 59.7538 77.3108 61.6065 77.0983C61.9552 76.1011 62.1514 75.6161 62.5165 74.6516C64.7888 74.499 65.9332 74.4445 68.2164 74.3628C68.5706 75.2292 68.7613 75.6542 69.1318 76.5043C70.8974 76.4226 71.8891 76.3844 73.4912 76.379C78.4282 76.4226 83.2998 76.695 88.2041 77.2018V75.4417C85.1198 75.1366 82.0029 74.9567 78.9023 74.8968C82.0753 72.4108 85.0892 69.7282 87.9261 66.8647C89.628 68.7208 91.2287 70.6672 92.7214 72.6953V78.9619C94.8357 79.3215 95.8929 79.5068 97.9908 79.9755V72.837C100.364 69.2801 102.473 65.5537 104.301 61.6879C102.214 62.2437 101.195 62.4944 99.1624 62.963ZM63.1159 73.0332C63.9878 70.6682 64.4292 69.5511 65.2956 67.3115H65.3937C66.2874 69.622 66.7342 70.7282 67.6279 72.9078C65.8187 72.9351 64.9196 72.9569 63.1159 73.0332Z" stroke="#00FB1D" stroke-width="1.02124" stroke-miterlimit="10"/>
<circle cx="64.9654" cy="46.7114" r="4.73876" fill="white"/>
<circle cx="81.8013" cy="46.7114" r="4.73876" fill="white"/>
<path d="M76.0964 51.9416C76.0982 51.7573 76.0728 51.5737 76.0211 51.3968C75.8424 50.8434 75.5048 50.3549 75.0503 49.9921C74.5959 49.6294 74.0447 49.4085 73.4654 49.3569C72.815 49.3912 72.1932 49.6358 71.6937 50.0538C71.1942 50.4719 70.8438 51.0407 70.6954 51.675C70.2376 54.1379 76.0906 54.1031 76.0964 51.9416Z" fill="#00FB1D"/>
<path d="M62.9304 40.0036C65.1792 39.2252 67.6205 39.2007 69.8845 39.9341C70.0666 39.9909 70.2187 40.1178 70.3073 40.2868C70.3958 40.4558 70.4136 40.6531 70.3568 40.8352C70.2999 41.0173 70.173 41.1694 70.004 41.258C69.835 41.3466 69.6378 41.3644 69.4556 41.3075C68.4682 40.7622 67.4031 40.3713 66.2973 40.1485C65.2023 39.955 64.0836 39.9355 62.9825 40.0905C62.913 40.0905 62.884 39.992 62.9825 39.9746L62.9304 40.0036Z" fill="#00FB1D"/>
<path d="M84.3027 39.6501C82.0128 39.0301 79.5839 39.1663 77.3776 40.0384C77.1993 40.1076 77.0558 40.2447 76.9786 40.4197C76.9015 40.5947 76.897 40.7931 76.9661 40.9714C77.0353 41.1497 77.1725 41.2932 77.3474 41.3704C77.5224 41.4475 77.7209 41.452 77.8992 41.3829C78.8499 40.7823 79.888 40.3327 80.9764 40.05C82.0561 39.7852 83.1707 39.6913 84.2796 39.7718C84.3491 39.7718 84.3723 39.6675 84.2796 39.6501H84.3027Z" fill="#00FB1D"/>
<path d="M96.5186 44.9469C94.9713 36.0282 88.9849 28.031 80.9761 24.7741C81.8164 22.7343 82.6393 20.2424 81.9613 18.4749C81.9226 18.3737 81.8564 18.2853 81.77 18.2199C81.6861 18.153 81.5863 18.1091 81.4803 18.0924C81.3729 18.0738 81.2624 18.0858 81.1616 18.1271C81.0589 18.1633 80.9686 18.2275 80.9008 18.3126C79.486 19.8681 77.8039 21.1576 75.9344 22.12C75.9775 21.4695 75.8806 20.8174 75.6504 20.2076C75.6197 20.1306 75.5698 20.0628 75.5055 20.0106C75.4407 19.9622 75.3652 19.9304 75.2853 19.9178C75.205 19.9049 75.1227 19.9131 75.0466 19.9415C74.9704 19.97 74.9029 20.0177 74.8507 20.0801C73.9953 21.0314 72.9913 21.8377 71.8778 22.4677C71.8746 21.9269 71.7745 21.3911 71.5822 20.8856C71.5529 20.8095 71.5026 20.7433 71.4374 20.6944C71.3744 20.6419 71.2982 20.6079 71.2172 20.5959C71.1392 20.5757 71.0575 20.5757 70.9796 20.5959C70.9029 20.6243 70.835 20.6722 70.7825 20.7349C69.497 22.3163 67.8964 23.6129 66.0827 24.5423C57.5755 27.7702 51.3341 36.4802 50.0882 45.5959C49.3928 50.6377 50.9285 54.9782 54.0173 58.7392C56.2993 56.5807 58.7877 54.6513 61.4466 52.9789C63.2199 51.8547 65.9552 51.7851 66.8245 51.3505C67.9774 51.0081 68.9695 50.264 69.6209 49.253C70.2723 48.242 70.5399 47.031 70.3752 45.8397C70.2106 44.6483 69.6245 43.5554 68.7232 42.759C67.8219 41.9627 66.6652 41.5156 65.4626 41.4988C62.3854 41.4988 59.8124 44.3558 57.9927 46.5116C57.0713 47.6068 56.1789 48.7427 55.3675 49.9191C55.2458 50.0987 54.8402 50.6435 54.3708 51.2867V45.312C54.3708 37.7783 60.4267 33.8724 67.9777 33.8724H78.774C86.3076 33.8724 92.5142 37.761 92.5142 45.312V50.9043C89.9006 46.8477 86.3887 41.3771 81.6425 41.3771C80.4451 41.4026 79.296 41.8541 78.4014 42.6504C77.5068 43.4468 76.9254 44.5359 76.7614 45.7223C76.5974 46.9087 76.8616 48.1147 77.5066 49.1239C78.1515 50.1331 79.1351 50.8794 80.2807 51.2288C81.15 51.6692 83.6419 51.8894 85.4963 52.863C88.2738 54.2873 90.9549 55.8921 93.5225 57.6671C93.9282 56.5719 94.3918 55.8301 94.5077 55.0651C95.7073 52.2024 97.0575 49.044 96.5186 44.9469ZM63.9269 47.5605C64.0348 47.9025 64.2507 48.2003 64.5423 48.4092C64.8338 48.618 65.1852 48.7267 65.5437 48.7189C65.9023 48.711 66.2486 48.5871 66.5307 48.3657C66.8129 48.1443 67.0156 47.8373 67.1084 47.4909C67.9463 47.2079 68.8208 47.0478 69.7046 47.0157C69.5749 48.0639 69.063 49.0274 68.2669 49.7215C67.4708 50.4156 66.4465 50.7915 65.3904 50.7772C64.3343 50.7628 63.3206 50.3592 62.5437 49.6437C61.7667 48.9282 61.2812 47.9512 61.18 46.8998C61.6842 47.0911 62.6346 47.1085 63.9269 47.5605ZM81.6773 50.6609C80.7156 50.6605 79.7819 50.3369 79.0262 49.7421C78.2706 49.1472 77.7368 48.3156 77.5106 47.3808C78.2831 47.4 79.0485 47.5328 79.7823 47.7749C79.9152 48.0393 80.1165 48.2634 80.3653 48.4237C80.6141 48.584 80.9012 48.6748 81.1969 48.6867C81.4927 48.6985 81.7862 48.6309 82.0469 48.491C82.3077 48.351 82.5263 48.1438 82.6799 47.8908C83.7235 47.5825 84.7918 47.3654 85.873 47.2417C85.6721 48.2066 85.1456 49.073 84.3816 49.6955C83.6177 50.3181 82.6628 50.6589 81.6773 50.6609Z" fill="#00FB1D"/>
<circle cx="65.4307" cy="47.6922" r="1.60665" fill="#3C4758"/>
<ellipse cx="64.9654" cy="45.9941" rx="4.26615" ry="1.87013" fill="#00FB1D"/>
<circle cx="81.2914" cy="47.7502" r="1.60665" fill="#3C4758"/>
<ellipse cx="81.3466" cy="46.0521" rx="4.28414" ry="1.87013" fill="#00FB1D"/>
<path d="M4.11944 76.8129C7.19556 77.6307 8.73362 78.0133 11.8097 78.7411C17.1967 80.009 19.5 83.2427 19.5 88.8698V91.1206C19.5 94.872 18.4122 97.2878 16.0863 98.3232V98.4283C18.6898 99.3661 19.5451 102.052 19.5451 106.186V112.616C19.4406 114.083 19.6346 115.555 20.1153 116.945C17.992 117.38 16.9341 117.598 14.8108 118.078C14.5332 117.148 14.3382 116.577 14.3382 113.456V106.344C14.3382 102.735 13.4378 101.594 11.0895 101.722L9.29633 101.782V119.458C7.22557 119.969 6.22021 120.209 4.12694 120.779L4.11944 76.8129ZM11.172 95.8773C13.1002 95.9448 14.2856 94.9845 14.2856 91.8634V88.8623C14.2856 86.0863 13.4754 84.7358 11.6372 84.4282L9.28882 84.0155V95.8023L11.172 95.8773Z" fill="#00FB1D"/>
<path d="M20.76 81.8022C26.4546 82.9126 29.3132 83.4002 35.0152 84.2255V88.5321C31.3839 88.1645 29.5758 87.9544 25.9519 87.4967V96.2374C28.833 96.335 30.266 96.3725 33.1546 96.455V100.844L26.012 100.979V111.168C29.6358 110.725 31.4439 110.515 35.0753 110.14V114.454C29.3432 115.272 26.4846 115.752 20.8201 116.87L20.76 81.8022Z" fill="#00FB1D"/>
<path d="M34.2651 84.3756C36.3883 84.6757 37.4537 84.8258 39.577 85.1259C40.6924 92.4686 41.8403 99.8087 43.0207 107.146H43.1183C44.2287 100.064 45.3791 92.9888 46.5695 85.9212C48.5128 86.1237 49.4806 86.2138 51.4163 86.3713C49.6607 95.2646 47.9651 104.158 46.3295 113.051C43.5234 113.336 42.1279 113.501 39.3369 113.854C37.5813 104.025 35.8906 94.1992 34.2651 84.3756Z" fill="#00FB1D"/>
<path d="M51.5889 85.1409C57.3435 85.6436 60.2395 85.8237 66.0166 86.0263V89.6651C62.3553 89.5675 60.5246 89.5 56.8708 89.32V96.32L64.141 96.395V100.056H56.8708V108.167C60.5246 107.987 62.3553 107.919 66.0166 107.822V111.483C60.2395 111.686 57.3435 111.866 51.5889 112.376V85.1409Z" fill="#00FB1D"/>
<path d="M66.6469 86.0487C69.2953 86.1387 70.6308 86.1612 73.2868 86.1837C75.3501 92.2235 76.3629 95.187 78.4412 101.234H78.5312V86.1837C80.4219 86.1837 81.3597 86.1837 83.2504 86.1012V111.408C81.0746 111.355 79.9792 111.333 77.8034 111.318C75.26 103.965 73.962 100.341 71.4411 92.9587H71.3811V111.348C69.4904 111.348 68.5451 111.4 66.6619 111.46L66.6469 86.0487Z" fill="#00FB1D"/>
<path d="M84.4213 105.428V92.0809C84.4213 88.0294 87.1223 85.6511 92.3142 85.3285C97.5061 85.0058 100.2 87.2267 100.2 91.5933V93.9041L95.2027 94.0391V91.5032C95.2027 89.6125 94.1448 88.9523 92.4642 89.0273C90.7836 89.1023 89.7182 89.8376 89.7182 91.6833V105.803C89.7182 107.649 90.7761 108.347 92.4642 108.422C94.1523 108.497 95.2027 107.874 95.2027 105.983V100.799H92.5543V97.0477L100.2 96.9802V105.893C100.2 110.245 97.5136 112.458 92.3142 112.143C87.1148 111.828 84.4213 109.487 84.4213 105.428Z" fill="#00FB1D"/>
<path d="M101.205 85.0433C106.975 84.5181 109.856 84.1805 115.58 83.3552V87.7593C111.956 88.127 110.141 88.292 106.494 88.5846V96.0874L113.72 95.9223V100.244L106.494 100.154V108.932C110.141 109.217 111.956 109.382 115.58 109.757V114.161C109.856 113.336 106.975 112.999 101.205 112.466V85.0433Z" fill="#00FB1D"/>
<path d="M116.202 83.2652C119.316 82.8075 120.877 82.5525 123.983 82.0123C129.407 81.0594 131.725 83.3027 131.725 88.9523V91.2031C131.725 94.9545 130.63 97.3704 128.312 98.4057V98.5033C130.915 99.3436 131.771 102.082 131.771 106.216V112.623C131.682 114.159 131.875 115.697 132.341 117.163C130.217 116.72 129.16 116.51 127.029 116.112C126.744 115.174 126.549 114.574 126.549 111.798V105.481C126.549 102.285 125.648 101.227 123.262 101.174L121.454 101.129V115.114C119.361 114.762 118.311 114.597 116.202 114.289V83.2652ZM123.367 96.3725C125.311 96.32 126.504 95.4046 126.504 92.6211V89.9727C126.504 87.5118 125.753 86.5514 123.833 86.7765L121.454 87.0616V96.3875L123.367 96.3725Z" fill="#00FB1D"/>
<path d="M132.101 108.369V106.284C134.082 106.456 135.065 106.539 137.023 106.726V109.375C137.023 112.136 138.066 113.306 139.716 113.591C141.367 113.876 142.402 113.014 142.402 109.952C142.402 106.539 141.36 104.138 137.968 100.544C133.624 95.9223 132.206 93.2063 132.206 88.9823C132.206 83.2352 134.907 79.3488 139.957 78.1108C145.006 76.8729 147.459 80.1816 147.459 87.1966V88.9748C145.509 89.2074 144.533 89.3274 142.575 89.53V87.4742C142.575 84.5182 141.637 83.5728 139.987 83.8654C138.336 84.158 137.383 85.366 137.383 88.0294C137.383 90.8655 138.494 92.6961 141.885 96.2825C146.214 100.912 147.572 104.693 147.572 110.163C147.572 117.305 144.863 120.539 139.762 119.301C134.66 118.063 132.101 114.222 132.101 108.369Z" fill="#00FB1D"/>
</svg>
